<?xml version="1.0" encoding="UTF-8"?>
<mxfile host="app.diagrams.net" modified="2025-09-15T00:00:00.000Z" agent="5.0" etag="def456" version="21.6.5" type="device">
  <diagram name="Low Level Design" id="low-level-design">
    <mxGraphModel dx="1422" dy="1000" grid="1" gridSize="10" guides="1" tooltips="1" connect="1" arrows="1" fold="1" page="1" pageScale="1" pageWidth="1400" pageHeight="1000" math="0" shadow="0">
      <root>
        <mxCell id="0" />
        <mxCell id="1" parent="0" />
        
        <!-- Title -->
        <mxCell id="title" value="AI Document Processing System - Low Level Design" style="text;strokeColor=none;fillColor=none;html=1;fontSize=20;fontStyle=1;verticalAlign=middle;align=center;" vertex="1" parent="1">
          <mxGeometry x="400" y="20" width="600" height="40" as="geometry" />
        </mxCell>
        
        <!-- Document Input Module -->
        <mxCell id="input-module" value="Document Input Module" style="rounded=1;whiteSpace=wrap;html=1;fillColor=#dae8fc;strokeColor=#6c8ebf;fontSize=14;fontStyle=1;" vertex="1" parent="1">
          <mxGeometry x="50" y="80" width="200" height="60" as="geometry" />
        </mxCell>
        
        <!-- File System Interface -->
        <mxCell id="file-interface" value="FileSystemInterface" style="rounded=0;whiteSpace=wrap;html=1;fillColor=#e1d5e7;strokeColor=#9673a6;fontSize=12;" vertex="1" parent="1">
          <mxGeometry x="50" y="160" width="130" height="40" as="geometry" />
        </mxCell>
        
        <!-- Image Validator -->
        <mxCell id="image-validator" value="ImageValidator" style="rounded=0;whiteSpace=wrap;html=1;fillColor=#e1d5e7;strokeColor=#9673a6;fontSize=12;" vertex="1" parent="1">
          <mxGeometry x="190" y="160" width="110" height="40" as="geometry" />
        </mxCell>
        
        <!-- Document Routing Engine -->
        <mxCell id="routing-engine" value="Document Routing Engine" style="rounded=1;whiteSpace=wrap;html=1;fillColor=#fff2cc;strokeColor=#d6b656;fontSize=14;fontStyle=1;" vertex="1" parent="1">
          <mxGeometry x="350" y="80" width="200" height="60" as="geometry" />
        </mxCell>
        
        <!-- Router Components -->
        <mxCell id="document-classifier" value="DocumentClassifier" style="rounded=0;whiteSpace=wrap;html=1;fillColor=#ffe6cc;strokeColor=#d79b00;fontSize=12;" vertex="1" parent="1">
          <mxGeometry x="320" y="160" width="130" height="40" as="geometry" />
        </mxCell>
        
        <mxCell id="processing-router" value="ProcessingRouter" style="rounded=0;whiteSpace=wrap;html=1;fillColor=#ffe6cc;strokeColor=#d79b00;fontSize=12;" vertex="1" parent="1">
          <mxGeometry x="460" y="160" width="120" height="40" as="geometry" />
        </mxCell>
        
        <!-- CrewAI Processing Stack -->
        <mxCell id="crewai-stack" value="CrewAI Processing Stack" style="rounded=1;whiteSpace=wrap;html=1;fillColor=#d5e8d4;strokeColor=#82b366;fontSize=14;fontStyle=1;" vertex="1" parent="1">
          <mxGeometry x="50" y="250" width="250" height="60" as="geometry" />
        </mxCell>
        
        <!-- CrewAI Components -->
        <mxCell id="crewai-processor" value="CrewAIDocumentProcessor" style="rounded=0;whiteSpace=wrap;html=1;fillColor=#d5e8d4;strokeColor=#82b366;fontSize=11;" vertex="1" parent="1">
          <mxGeometry x="50" y="330" width="150" height="40" as="geometry" />
        </mxCell>
        
        <mxCell id="enhanced-crewai" value="EnhancedCrewAIProcessor" style="rounded=0;whiteSpace=wrap;html=1;fillColor=#d5e8d4;strokeColor=#82b366;fontSize=11;" vertex="1" parent="1">
          <mxGeometry x="220" y="330" width="150" height="40" as="geometry" />
        </mxCell>
        
        <!-- CrewAI Agents -->
        <mxCell id="ocr-agent" value="OCRAgent" style="ellipse;whiteSpace=wrap;html=1;fillColor=#e8f5e8;strokeColor=#4CAF50;fontSize=10;" vertex="1" parent="1">
          <mxGeometry x="40" y="390" width="70" height="50" as="geometry" />
        </mxCell>
        
        <mxCell id="classification-agent" value="ClassificationAgent" style="ellipse;whiteSpace=wrap;html=1;fillColor=#e8f5e8;strokeColor=#4CAF50;fontSize=10;" vertex="1" parent="1">
          <mxGeometry x="120" y="390" width="80" height="50" as="geometry" />
        </mxCell>
        
        <mxCell id="extraction-agent" value="ExtractionAgent" style="ellipse;whiteSpace=wrap;html=1;fillColor=#e8f5e8;strokeColor=#4CAF50;fontSize=10;" vertex="1" parent="1">
          <mxGeometry x="210" y="390" width="80" height="50" as="geometry" />
        </mxCell>
        
        <mxCell id="validation-agent" value="ValidationAgent" style="ellipse;whiteSpace=wrap;html=1;fillColor=#e8f5e8;strokeColor=#4CAF50;fontSize=10;" vertex="1" parent="1">
          <mxGeometry x="300" y="390" width="80" height="50" as="geometry" />
        </mxCell>
        
        <!-- LangChain Processing Stack -->
        <mxCell id="langchain-stack" value="LangChain Processing Stack" style="rounded=1;whiteSpace=wrap;html=1;fillColor=#f8cecc;strokeColor=#b85450;fontSize=14;fontStyle=1;" vertex="1" parent="1">
          <mxGeometry x="420" y="250" width="250" height="60" as="geometry" />
        </mxCell>
        
        <!-- LangChain Components -->
        <mxCell id="langchain-processor" value="LangChainDocumentProcessor" style="rounded=0;whiteSpace=wrap;html=1;fillColor=#f8cecc;strokeColor=#b85450;fontSize=11;" vertex="1" parent="1">
          <mxGeometry x="420" y="330" width="170" height="40" as="geometry" />
        </mxCell>
        
        <mxCell id="enhanced-langchain" value="EnhancedLangChainProcessor" style="rounded=0;whiteSpace=wrap;html=1;fillColor=#f8cecc;strokeColor=#b85450;fontSize=11;" vertex="1" parent="1">
          <mxGeometry x="610" y="330" width="170" height="40" as="geometry" />
        </mxCell>
        
        <!-- LangChain Chains -->
        <mxCell id="ocr-chain" value="OCRChain" style="rounded=0;whiteSpace=wrap;html=1;fillColor=#ffebee;strokeColor=#f44336;fontSize=10;" vertex="1" parent="1">
          <mxGeometry x="420" y="390" width="70" height="30" as="geometry" />
        </mxCell>
        
        <mxCell id="classification-chain" value="ClassificationChain" style="rounded=0;whiteSpace=wrap;html=1;fillColor=#ffebee;strokeColor=#f44336;fontSize=10;" vertex="1" parent="1">
          <mxGeometry x="500" y="390" width="100" height="30" as="geometry" />
        </mxCell>
        
        <mxCell id="extraction-chain" value="ExtractionChain" style="rounded=0;whiteSpace=wrap;html=1;fillColor=#ffebee;strokeColor=#f44336;fontSize=10;" vertex="1" parent="1">
          <mxGeometry x="610" y="390" width="90" height="30" as="geometry" />
        </mxCell>
        
        <mxCell id="validation-chain" value="ValidationChain" style="rounded=0;whiteSpace=wrap;html=1;fillColor=#ffebee;strokeColor=#f44336;fontSize=10;" vertex="1" parent="1">
          <mxGeometry x="710" y="390" width="90" height="30" as="geometry" />
        </mxCell>
        
        <!-- Progress Tracking System -->
        <mxCell id="progress-system" value="Progress Tracking System" style="rounded=1;whiteSpace=wrap;html=1;fillColor=#e6f7ff;strokeColor=#1890ff;fontSize=14;fontStyle=1;" vertex="1" parent="1">
          <mxGeometry x="850" y="80" width="200" height="60" as="geometry" />
        </mxCell>
        
        <!-- Progress Components -->
        <mxCell id="progress-collector" value="ProgressCollectorMCP" style="rounded=0;whiteSpace=wrap;html=1;fillColor=#e6f7ff;strokeColor=#1890ff;fontSize=12;" vertex="1" parent="1">
          <mxGeometry x="850" y="160" width="140" height="40" as="geometry" />
        </mxCell>
        
        <mxCell id="event-collector" value="EventCollector" style="rounded=0;whiteSpace=wrap;html=1;fillColor=#e6f7ff;strokeColor=#1890ff;fontSize=12;" vertex="1" parent="1">
          <mxGeometry x="1000" y="160" width="100" height="40" as="geometry" />
        </mxCell>
        
        <!-- Progress Detail Components -->
        <mxCell id="performance-tracker" value="PerformanceTracker" style="rounded=0;whiteSpace=wrap;html=1;fillColor=#f0f8ff;strokeColor=#1976d2;fontSize=10;" vertex="1" parent="1">
          <mxGeometry x="820" y="220" width="110" height="30" as="geometry" />
        </mxCell>
        
        <mxCell id="metrics-collector" value="MetricsCollector" style="rounded=0;whiteSpace=wrap;html=1;fillColor=#f0f8ff;strokeColor=#1976d2;fontSize=10;" vertex="1" parent="1">
          <mxGeometry x="940" y="220" width="100" height="30" as="geometry" />
        </mxCell>
        
        <mxCell id="event-logger" value="EventLogger" style="rounded=0;whiteSpace=wrap;html=1;fillColor=#f0f8ff;strokeColor=#1976d2;fontSize=10;" vertex="1" parent="1">
          <mxGeometry x="1050" y="220" width="80" height="30" as="geometry" />
        </mxCell>
        
        <!-- Batch Processing Module -->
        <mxCell id="batch-module" value="Batch Processing Module" style="rounded=1;whiteSpace=wrap;html=1;fillColor=#fff2cc;strokeColor=#d6b656;fontSize=14;fontStyle=1;" vertex="1" parent="1">
          <mxGeometry x="700" y="250" width="200" height="60" as="geometry" />
        </mxCell>
        
        <mxCell id="batch-processor" value="BatchProcessor" style="rounded=0;whiteSpace=wrap;html=1;fillColor=#fff2cc;strokeColor=#d6b656;fontSize=12;" vertex="1" parent="1">
          <mxGeometry x="700" y="330" width="120" height="40" as="geometry" />
        </mxCell>
        
        <mxCell id="comparison-engine" value="ComparisonEngine" style="rounded=0;whiteSpace=wrap;html=1;fillColor=#fff2cc;strokeColor=#d6b656;fontSize=12;" vertex="1" parent="1">
          <mxGeometry x="840" y="330" width="130" height="40" as="geometry" />
        </mxCell>
        
        <!-- Data Models -->
        <mxCell id="models-module" value="Data Models Module" style="rounded=1;whiteSpace=wrap;html=1;fillColor=#f0f0f0;strokeColor=#666666;fontSize=14;fontStyle=1;" vertex="1" parent="1">
          <mxGeometry x="50" y="480" width="200" height="60" as="geometry" />
        </mxCell>
        
        <!-- Model Components -->
        <mxCell id="document-result" value="DocumentResult" style="rounded=0;whiteSpace=wrap;html=1;fillColor=#f5f5f5;strokeColor=#666666;fontSize=11;" vertex="1" parent="1">
          <mxGeometry x="50" y="560" width="100" height="30" as="geometry" />
        </mxCell>
        
        <mxCell id="classification-result" value="ClassificationResult" style="rounded=0;whiteSpace=wrap;html=1;fillColor=#f5f5f5;strokeColor=#666666;fontSize=11;" vertex="1" parent="1">
          <mxGeometry x="160" y="560" width="120" height="30" as="geometry" />
        </mxCell>
        
        <mxCell id="extraction-result" value="ExtractionResult" style="rounded=0;whiteSpace=wrap;html=1;fillColor=#f5f5f5;strokeColor=#666666;fontSize=11;" vertex="1" parent="1">
          <mxGeometry x="290" y="560" width="110" height="30" as="geometry" />
        </mxCell>
        
        <mxCell id="accuracy-assessment" value="AccuracyAssessment" style="rounded=0;whiteSpace=wrap;html=1;fillColor=#f5f5f5;strokeColor=#666666;fontSize=11;" vertex="1" parent="1">
          <mxGeometry x="410" y="560" width="130" height="30" as="geometry" />
        </mxCell>
        
        <!-- Output Module -->
        <mxCell id="output-module" value="Output &amp; Reporting Module" style="rounded=1;whiteSpace=wrap;html=1;fillColor=#d5e8d4;strokeColor=#82b366;fontSize=14;fontStyle=1;" vertex="1" parent="1">
          <mxGeometry x="600" y="480" width="200" height="60" as="geometry" />
        </mxCell>
        
        <!-- Output Components -->
        <mxCell id="excel-generator" value="ExcelReportGenerator" style="rounded=0;whiteSpace=wrap;html=1;fillColor=#d5e8d4;strokeColor=#82b366;fontSize=11;" vertex="1" parent="1">
          <mxGeometry x="600" y="560" width="140" height="30" as="geometry" />
        </mxCell>
        
        <mxCell id="json-exporter" value="JSONExporter" style="rounded=0;whiteSpace=wrap;html=1;fillColor=#d5e8d4;strokeColor=#82b366;fontSize=11;" vertex="1" parent="1">
          <mxGeometry x="750" y="560" width="100" height="30" as="geometry" />
        </mxCell>
        
        <mxCell id="metrics-dashboard" value="MetricsDashboard" style="rounded=0;whiteSpace=wrap;html=1;fillColor=#d5e8d4;strokeColor=#82b366;fontSize=11;" vertex="1" parent="1">
          <mxGeometry x="860" y="560" width="120" height="30" as="geometry" />
        </mxCell>
        
        <!-- Utilities Module -->
        <mxCell id="utils-module" value="Utilities Module" style="rounded=1;whiteSpace=wrap;html=1;fillColor=#ffe6cc;strokeColor=#d79b00;fontSize=14;fontStyle=1;" vertex="1" parent="1">
          <mxGeometry x="1050" y="480" width="150" height="60" as="geometry" />
        </mxCell>
        
        <!-- Utility Components -->
        <mxCell id="image-preprocessor" value="ImagePreprocessor" style="rounded=0;whiteSpace=wrap;html=1;fillColor=#ffe6cc;strokeColor=#d79b00;fontSize=10;" vertex="1" parent="1">
          <mxGeometry x="1020" y="560" width="100" height="25" as="geometry" />
        </mxCell>
        
        <mxCell id="path-utils" value="PathUtils" style="rounded=0;whiteSpace=wrap;html=1;fillColor=#ffe6cc;strokeColor=#d79b00;fontSize=10;" vertex="1" parent="1">
          <mxGeometry x="1130" y="560" width="70" height="25" as="geometry" />
        </mxCell>
        
        <mxCell id="config-manager" value="ConfigManager" style="rounded=0;whiteSpace=wrap;html=1;fillColor=#ffe6cc;strokeColor=#d79b00;fontSize=10;" vertex="1" parent="1">
          <mxGeometry x="1020" y="595" width="100" height="25" as="geometry" />
        </mxCell>
        
        <mxCell id="error-handler" value="ErrorHandler" style="rounded=0;whiteSpace=wrap;html=1;fillColor=#ffe6cc;strokeColor=#d79b00;fontSize=10;" vertex="1" parent="1">
          <mxGeometry x="1130" y="595" width="80" height="25" as="geometry" />
        </mxCell>
        
        <!-- Main Flow Arrows -->
        <mxCell id="flow1" style="edgeStyle=orthogonalEdgeStyle;rounded=0;orthogonalLoop=1;jettySize=auto;html=1;strokeWidth=2;fillColor=#dae8fc;strokeColor=#6c8ebf;" edge="1" parent="1" source="input-module" target="routing-engine">
          <mxGeometry relative="1" as="geometry" />
        </mxCell>
        
        <mxCell id="flow2" style="edgeStyle=orthogonalEdgeStyle;rounded=0;orthogonalLoop=1;jettySize=auto;html=1;strokeWidth=2;fillColor=#fff2cc;strokeColor=#d6b656;" edge="1" parent="1" source="routing-engine" target="crewai-stack">
          <mxGeometry relative="1" as="geometry" />
        </mxCell>
        
        <mxCell id="flow3" style="edgeStyle=orthogonalEdgeStyle;rounded=0;orthogonalLoop=1;jettySize=auto;html=1;strokeWidth=2;fillColor=#fff2cc;strokeColor=#d6b656;" edge="1" parent="1" source="routing-engine" target="langchain-stack">
          <mxGeometry relative="1" as="geometry" />
        </mxCell>
        
        <mxCell id="flow4" style="edgeStyle=orthogonalEdgeStyle;rounded=0;orthogonalLoop=1;jettySize=auto;html=1;strokeWidth=2;fillColor=#e6f7ff;strokeColor=#1890ff;" edge="1" parent="1" source="batch-module" target="progress-system">
          <mxGeometry relative="1" as="geometry" />
        </mxCell>
        
        <mxCell id="flow5" style="edgeStyle=orthogonalEdgeStyle;rounded=0;orthogonalLoop=1;jettySize=auto;html=1;strokeWidth=2;fillColor=#d5e8d4;strokeColor=#82b366;" edge="1" parent="1" source="progress-system" target="output-module">
          <mxGeometry relative="1" as="geometry" />
        </mxCell>
        
        <!-- Component Connections -->
        <mxCell id="conn1" style="edgeStyle=orthogonalEdgeStyle;rounded=0;orthogonalLoop=1;jettySize=auto;html=1;strokeWidth=1;strokeColor=#9673a6;" edge="1" parent="1" source="input-module" target="file-interface">
          <mxGeometry relative="1" as="geometry" />
        </mxCell>
        
        <mxCell id="conn2" style="edgeStyle=orthogonalEdgeStyle;rounded=0;orthogonalLoop=1;jettySize=auto;html=1;strokeWidth=1;strokeColor=#9673a6;" edge="1" parent="1" source="input-module" target="image-validator">
          <mxGeometry relative="1" as="geometry" />
        </mxCell>
        
        <mxCell id="conn3" style="edgeStyle=orthogonalEdgeStyle;rounded=0;orthogonalLoop=1;jettySize=auto;html=1;strokeWidth=1;strokeColor=#d79b00;" edge="1" parent="1" source="routing-engine" target="document-classifier">
          <mxGeometry relative="1" as="geometry" />
        </mxCell>
        
        <mxCell id="conn4" style="edgeStyle=orthogonalEdgeStyle;rounded=0;orthogonalLoop=1;jettySize=auto;html=1;strokeWidth=1;strokeColor=#d79b00;" edge="1" parent="1" source="routing-engine" target="processing-router">
          <mxGeometry relative="1" as="geometry" />
        </mxCell>
        
        <!-- Technology Stack Labels -->
        <mxCell id="tech-stack-title" value="Technology Stack" style="text;strokeColor=none;fillColor=none;html=1;fontSize=16;fontStyle=1;verticalAlign=middle;align=left;" vertex="1" parent="1">
          <mxGeometry x="50" y="650" width="150" height="30" as="geometry" />
        </mxCell>
        
        <mxCell id="tech-python" value="• Python 3.11+" style="text;strokeColor=none;fillColor=none;html=1;fontSize=11;verticalAlign=middle;align=left;" vertex="1" parent="1">
          <mxGeometry x="50" y="680" width="120" height="20" as="geometry" />
        </mxCell>
        
        <mxCell id="tech-crewai" value="• CrewAI Framework" style="text;strokeColor=none;fillColor=none;html=1;fontSize=11;verticalAlign=middle;align=left;" vertex="1" parent="1">
          <mxGeometry x="50" y="700" width="120" height="20" as="geometry" />
        </mxCell>
        
        <mxCell id="tech-langchain" value="• LangChain Framework" style="text;strokeColor=none;fillColor=none;html=1;fontSize=11;verticalAlign=middle;align=left;" vertex="1" parent="1">
          <mxGeometry x="50" y="720" width="140" height="20" as="geometry" />
        </mxCell>
        
        <mxCell id="tech-pandas" value="• Pandas + OpenPyXL" style="text;strokeColor=none;fillColor=none;html=1;fontSize=11;verticalAlign=middle;align=left;" vertex="1" parent="1">
          <mxGeometry x="200" y="680" width="130" height="20" as="geometry" />
        </mxCell>
        
        <mxCell id="tech-asyncio" value="• AsyncIO Support" style="text;strokeColor=none;fillColor=none;html=1;fontSize=11;verticalAlign=middle;align=left;" vertex="1" parent="1">
          <mxGeometry x="200" y="700" width="120" height="20" as="geometry" />
        </mxCell>
        
        <mxCell id="tech-pathlib" value="• Pathlib + Type Hints" style="text;strokeColor=none;fillColor=none;html=1;fontSize=11;verticalAlign=middle;align=left;" vertex="1" parent="1">
          <mxGeometry x="200" y="720" width="140" height="20" as="geometry" />
        </mxCell>
        
        <!-- Performance Metrics -->
        <mxCell id="perf-title" value="Performance Metrics" style="text;strokeColor=none;fillColor=none;html=1;fontSize=16;fontStyle=1;verticalAlign=middle;align=left;" vertex="1" parent="1">
          <mxGeometry x="400" y="650" width="150" height="30" as="geometry" />
        </mxCell>
        
        <mxCell id="perf-tracking" value="• Real-time Processing Time Tracking" style="text;strokeColor=none;fillColor=none;html=1;fontSize=11;verticalAlign=middle;align=left;" vertex="1" parent="1">
          <mxGeometry x="400" y="680" width="220" height="20" as="geometry" />
        </mxCell>
        
        <mxCell id="perf-accuracy" value="• Accuracy Assessment per Document" style="text;strokeColor=none;fillColor=none;html=1;fontSize=11;verticalAlign=middle;align=left;" vertex="1" parent="1">
          <mxGeometry x="400" y="700" width="220" height="20" as="geometry" />
        </mxCell>
        
        <mxCell id="perf-comparison" value="• Framework Performance Comparison" style="text;strokeColor=none;fillColor=none;html=1;fontSize=11;verticalAlign=middle;align=left;" vertex="1" parent="1">
          <mxGeometry x="400" y="720" width="220" height="20" as="geometry" />
        </mxCell>
        
        <!-- Output Features -->
        <mxCell id="output-title" value="Output Features" style="text;strokeColor=none;fillColor=none;html=1;fontSize=16;fontStyle=1;verticalAlign=middle;align=left;" vertex="1" parent="1">
          <mxGeometry x="700" y="650" width="120" height="30" as="geometry" />
        </mxCell>
        
        <mxCell id="output-excel" value="• Comprehensive Excel Reports" style="text;strokeColor=none;fillColor=none;html=1;fontSize=11;verticalAlign=middle;align=left;" vertex="1" parent="1">
          <mxGeometry x="700" y="680" width="180" height="20" as="geometry" />
        </mxCell>
        
        <mxCell id="output-json" value="• Structured JSON Data Export" style="text;strokeColor=none;fillColor=none;html=1;fontSize=11;verticalAlign=middle;align=left;" vertex="1" parent="1">
          <mxGeometry x="700" y="700" width="180" height="20" as="geometry" />
        </mxCell>
        
        <mxCell id="output-metrics" value="• Visual Performance Dashboards" style="text;strokeColor=none;fillColor=none;html=1;fontSize=11;verticalAlign=middle;align=left;" vertex="1" parent="1">
          <mxGeometry x="700" y="720" width="190" height="20" as="geometry" />
        </mxCell>
        
        <!-- Architecture Notes -->
        <mxCell id="arch-title" value="Architecture Notes" style="text;strokeColor=none;fillColor=none;html=1;fontSize=16;fontStyle=1;verticalAlign=middle;align=left;" vertex="1" parent="1">
          <mxGeometry x="1000" y="650" width="140" height="30" as="geometry" />
        </mxCell>
        
        <mxCell id="arch-modular" value="• Modular Design Pattern" style="text;strokeColor=none;fillColor=none;html=1;fontSize=11;verticalAlign=middle;align=left;" vertex="1" parent="1">
          <mxGeometry x="1000" y="680" width="160" height="20" as="geometry" />
        </mxCell>
        
        <mxCell id="arch-async" value="• Asynchronous Processing" style="text;strokeColor=none;fillColor=none;html=1;fontSize=11;verticalAlign=middle;align=left;" vertex="1" parent="1">
          <mxGeometry x="1000" y="700" width="160" height="20" as="geometry" />
        </mxCell>
        
        <mxCell id="arch-extensible" value="• Extensible Plugin Architecture" style="text;strokeColor=none;fillColor=none;html=1;fontSize=11;verticalAlign=middle;align=left;" vertex="1" parent="1">
          <mxGeometry x="1000" y="720" width="190" height="20" as="geometry" />
        </mxCell>
        
      </root>
    </mxGraphModel>
  </diagram>
</mxfile>
